# xmcd
#
# Track frame offsets:
#	150
#	28402
#	41560
#	76148
#	85908
#	98016
#	124539
#	158651
#	180086
#	202080
#	225578
#	240249
#	262375
#	290832
#
# Disc length: 4185 seconds
#
# Revision: 0
# Processed by: cddbd v1.5.2PL0 Copyright (c) Steve Scherf et al.
# Submitted via: EasyCDDAExtractor 16.1.0.1
#
DISCID=b310570e
DTITLE=African Scream Contest 2
DYEAR=1900
DGENRE=
TTITLE0=Les Sympathics De Porto-Novo - A Min We Vo Nou We
TTITLE1=Ignace De Souza and The Melody Aces - Asaw Fofor
TTITLE2=Stanislas Tohon - Dja Dja Dja
TTITLE3=Elias Akadiri and Sunny Black's Band - L'enfance
TTITLE4=Picoby Band D'Abomey - Mé Adomina
TTITLE5=Antoine Dougbé - Nounignon Ma Kpon Midji
TTITLE6=Orchestre Poly​-​Rythmo De Cotonou - Moulon Devia
TTITLE7=Black Santiago - Paulina
TTITLE8=Lokonon André Et L'Orchestre Les Volcans - Glenon Ho Akue
TTITLE9=Sebastien Pynasco And L'Orchestre Black Santiago - Sadé
TTITLE10=Super Borgou De Parakou - Baba L'Oke Ba'Wagbe
TTITLE11=Cornaire Salifou Michel Et L'Orchestre El Rego and Ses Commandos - Gang
TTITLE11=nidodo
TTITLE12=Gnonnas Pedro and His Dadjes Band - How Much Love Naturally Cost
TTITLE13=Orchestre Poly​-​Rythmo De Cotonou - Idavi
EXTD=
EXTT0=
EXTT1=
EXTT2=
EXTT3=
EXTT4=
EXTT5=
EXTT6=
EXTT7=
EXTT8=
EXTT9=
EXTT10=
EXTT11=
EXTT12=
EXTT13=
PLAYORDER=
